STARTFONT 2.1
COMMENT Exported by Fony v1.4.0.2
FONT Untitled
SIZE 32 96 96
FONTBOUNDINGBOX 20 31 0 -23
STARTPROPERTIES 6
COPYRIGHT "Created with Fony 1.4.0.2"
RESOLUTION_X 96
RESOLUTION_Y 96
FONT_ASCENT 9
FONT_DESCENT 23
DEFAULT_CHAR 0
ENDPROPERTIES
CHARS 256
STARTCHAR 000
ENCODING 0
SWIDTH 1440 0
DWIDTH 20 0
BBX 0 0 0 0
BITMAP
ENDCHAR
STARTCHAR 001
ENCODING 1
SWIDTH 1440 0
DWIDTH 20 0
BBX 0 0 0 0
BITMAP
ENDCHAR
STARTCHAR 002
ENCODING 2
SWIDTH 1440 0
DWIDTH 20 0
BBX 0 0 0 0
BITMAP
ENDCHAR
STARTCHAR 003
ENCODING 3
SWIDTH 1440 0
DWIDTH 20 0
BBX 0 0 0 0
BITMAP
ENDCHAR
STARTCHAR 004
ENCODING 4
SWIDTH 1440 0
DWIDTH 20 0
BBX 0 0 0 0
BITMAP
ENDCHAR
STARTCHAR 005
ENCODING 5
SWIDTH 1440 0
DWIDTH 20 0
BBX 0 0 0 0
BITMAP
ENDCHAR
STARTCHAR 006
ENCODING 6
SWIDTH 1440 0
DWIDTH 20 0
BBX 0 0 0 0
BITMAP
ENDCHAR
STARTCHAR 007
ENCODING 7
SWIDTH 1440 0
DWIDTH 20 0
BBX 0 0 0 0
BITMAP
ENDCHAR
STARTCHAR 008
ENCODING 8
SWIDTH 1440 0
DWIDTH 20 0
BBX 0 0 0 0
BITMAP
ENDCHAR
STARTCHAR 009
ENCODING 9
SWIDTH 1440 0
DWIDTH 20 0
BBX 0 0 0 0
BITMAP
ENDCHAR
STARTCHAR 010
ENCODING 10
SWIDTH 1440 0
DWIDTH 20 0
BBX 0 0 0 0
BITMAP
ENDCHAR
STARTCHAR 011
ENCODING 11
SWIDTH 1440 0
DWIDTH 20 0
BBX 0 0 0 0
BITMAP
ENDCHAR
STARTCHAR 012
ENCODING 12
SWIDTH 1440 0
DWIDTH 20 0
BBX 0 0 0 0
BITMAP
ENDCHAR
STARTCHAR 013
ENCODING 13
SWIDTH 1440 0
DWIDTH 20 0
BBX 0 0 0 0
BITMAP
ENDCHAR
STARTCHAR 014
ENCODING 14
SWIDTH 1440 0
DWIDTH 20 0
BBX 0 0 0 0
BITMAP
ENDCHAR
STARTCHAR 015
ENCODING 15
SWIDTH 1440 0
DWIDTH 20 0
BBX 0 0 0 0
BITMAP
ENDCHAR
STARTCHAR 016
ENCODING 16
SWIDTH 1440 0
DWIDTH 20 0
BBX 0 0 0 0
BITMAP
ENDCHAR
STARTCHAR 017
ENCODING 17
SWIDTH 1440 0
DWIDTH 20 0
BBX 0 0 0 0
BITMAP
ENDCHAR
STARTCHAR 018
ENCODING 18
SWIDTH 1440 0
DWIDTH 20 0
BBX 0 0 0 0
BITMAP
ENDCHAR
STARTCHAR 019
ENCODING 19
SWIDTH 1440 0
DWIDTH 20 0
BBX 0 0 0 0
BITMAP
ENDCHAR
STARTCHAR 020
ENCODING 20
SWIDTH 1440 0
DWIDTH 20 0
BBX 0 0 0 0
BITMAP
ENDCHAR
STARTCHAR 021
ENCODING 21
SWIDTH 1440 0
DWIDTH 20 0
BBX 0 0 0 0
BITMAP
ENDCHAR
STARTCHAR 022
ENCODING 22
SWIDTH 1440 0
DWIDTH 20 0
BBX 0 0 0 0
BITMAP
ENDCHAR
STARTCHAR 023
ENCODING 23
SWIDTH 1440 0
DWIDTH 20 0
BBX 0 0 0 0
BITMAP
ENDCHAR
STARTCHAR 024
ENCODING 24
SWIDTH 1440 0
DWIDTH 20 0
BBX 0 0 0 0
BITMAP
ENDCHAR
STARTCHAR 025
ENCODING 25
SWIDTH 1440 0
DWIDTH 20 0
BBX 0 0 0 0
BITMAP
ENDCHAR
STARTCHAR 026
ENCODING 26
SWIDTH 1440 0
DWIDTH 20 0
BBX 0 0 0 0
BITMAP
ENDCHAR
STARTCHAR 027
ENCODING 27
SWIDTH 1440 0
DWIDTH 20 0
BBX 0 0 0 0
BITMAP
ENDCHAR
STARTCHAR 028
ENCODING 28
SWIDTH 1440 0
DWIDTH 20 0
BBX 0 0 0 0
BITMAP
ENDCHAR
STARTCHAR 029
ENCODING 29
SWIDTH 1440 0
DWIDTH 20 0
BBX 0 0 0 0
BITMAP
ENDCHAR
STARTCHAR 030
ENCODING 30
SWIDTH 1440 0
DWIDTH 20 0
BBX 0 0 0 0
BITMAP
ENDCHAR
STARTCHAR 031
ENCODING 31
SWIDTH 1440 0
DWIDTH 20 0
BBX 0 0 0 0
BITMAP
ENDCHAR
STARTCHAR 032
ENCODING 32
SWIDTH 1440 0
DWIDTH 20 0
BBX 0 0 0 0
BITMAP
ENDCHAR
STARTCHAR 033
ENCODING 33
SWIDTH 1440 0
DWIDTH 20 0
BBX 0 0 0 0
BITMAP
ENDCHAR
STARTCHAR 034
ENCODING 34
SWIDTH 1440 0
DWIDTH 20 0
BBX 0 0 0 0
BITMAP
ENDCHAR
STARTCHAR 035
ENCODING 35
SWIDTH 1440 0
DWIDTH 20 0
BBX 0 0 0 0
BITMAP
ENDCHAR
STARTCHAR 036
ENCODING 36
SWIDTH 1440 0
DWIDTH 20 0
BBX 0 0 0 0
BITMAP
ENDCHAR
STARTCHAR 037
ENCODING 37
SWIDTH 1440 0
DWIDTH 20 0
BBX 0 0 0 0
BITMAP
ENDCHAR
STARTCHAR 038
ENCODING 38
SWIDTH 1440 0
DWIDTH 20 0
BBX 0 0 0 0
BITMAP
ENDCHAR
STARTCHAR 039
ENCODING 39
SWIDTH 1440 0
DWIDTH 20 0
BBX 0 0 0 0
BITMAP
ENDCHAR
STARTCHAR 040
ENCODING 40
SWIDTH 1440 0
DWIDTH 20 0
BBX 0 0 0 0
BITMAP
ENDCHAR
STARTCHAR 041
ENCODING 41
SWIDTH 1440 0
DWIDTH 20 0
BBX 0 0 0 0
BITMAP
ENDCHAR
STARTCHAR 042
ENCODING 42
SWIDTH 1440 0
DWIDTH 20 0
BBX 0 0 0 0
BITMAP
ENDCHAR
STARTCHAR 043
ENCODING 43
SWIDTH 1440 0
DWIDTH 20 0
BBX 0 0 0 0
BITMAP
ENDCHAR
STARTCHAR 044
ENCODING 44
SWIDTH 1440 0
DWIDTH 20 0
BBX 0 0 0 0
BITMAP
ENDCHAR
STARTCHAR 045
ENCODING 45
SWIDTH 1440 0
DWIDTH 20 0
BBX 0 0 0 0
BITMAP
ENDCHAR
STARTCHAR 046
ENCODING 46
SWIDTH 1440 0
DWIDTH 20 0
BBX 0 0 0 0
BITMAP
ENDCHAR
STARTCHAR 047
ENCODING 47
SWIDTH 1440 0
DWIDTH 20 0
BBX 0 0 0 0
BITMAP
ENDCHAR
STARTCHAR 048
ENCODING 48
SWIDTH 1440 0
DWIDTH 20 0
BBX 0 0 0 0
BITMAP
ENDCHAR
STARTCHAR 049
ENCODING 49
SWIDTH 1440 0
DWIDTH 20 0
BBX 0 0 0 0
BITMAP
ENDCHAR
STARTCHAR 050
ENCODING 50
SWIDTH 1440 0
DWIDTH 20 0
BBX 0 0 0 0
BITMAP
ENDCHAR
STARTCHAR 051
ENCODING 51
SWIDTH 1440 0
DWIDTH 20 0
BBX 0 0 0 0
BITMAP
ENDCHAR
STARTCHAR 052
ENCODING 52
SWIDTH 1440 0
DWIDTH 20 0
BBX 0 0 0 0
BITMAP
ENDCHAR
STARTCHAR 053
ENCODING 53
SWIDTH 1440 0
DWIDTH 20 0
BBX 0 0 0 0
BITMAP
ENDCHAR
STARTCHAR 054
ENCODING 54
SWIDTH 1440 0
DWIDTH 20 0
BBX 0 0 0 0
BITMAP
ENDCHAR
STARTCHAR 055
ENCODING 55
SWIDTH 1440 0
DWIDTH 20 0
BBX 0 0 0 0
BITMAP
ENDCHAR
STARTCHAR 056
ENCODING 56
SWIDTH 1440 0
DWIDTH 20 0
BBX 0 0 0 0
BITMAP
ENDCHAR
STARTCHAR 057
ENCODING 57
SWIDTH 1440 0
DWIDTH 20 0
BBX 0 0 0 0
BITMAP
ENDCHAR
STARTCHAR 058
ENCODING 58
SWIDTH 1440 0
DWIDTH 20 0
BBX 0 0 0 0
BITMAP
ENDCHAR
STARTCHAR 059
ENCODING 59
SWIDTH 1440 0
DWIDTH 20 0
BBX 0 0 0 0
BITMAP
ENDCHAR
STARTCHAR 060
ENCODING 60
SWIDTH 1440 0
DWIDTH 20 0
BBX 0 0 0 0
BITMAP
ENDCHAR
STARTCHAR 061
ENCODING 61
SWIDTH 1440 0
DWIDTH 20 0
BBX 0 0 0 0
BITMAP
ENDCHAR
STARTCHAR 062
ENCODING 62
SWIDTH 1440 0
DWIDTH 20 0
BBX 0 0 0 0
BITMAP
ENDCHAR
STARTCHAR 063
ENCODING 63
SWIDTH 1440 0
DWIDTH 20 0
BBX 0 0 0 0
BITMAP
ENDCHAR
STARTCHAR 064
ENCODING 64
SWIDTH 1440 0
DWIDTH 20 0
BBX 0 0 0 0
BITMAP
ENDCHAR
STARTCHAR 065
ENCODING 65
SWIDTH 1440 0
DWIDTH 20 0
BBX 18 24 1 -20
BITMAP
FFFFC0
FFFFC0
FFFFC0
FFFFC0
F00000
F00000
F00000
F00000
F00000
F00000
FFFFC0
FFFFC0
FFFFC0
FFFFC0
0003C0
0003C0
0003C0
0003C0
0003C0
0003C0
FFFFC0
FFFFC0
FFFFC0
FFFFC0
ENDCHAR
STARTCHAR 066
ENCODING 66
SWIDTH 1440 0
DWIDTH 20 0
BBX 18 24 1 -20
BITMAP
FFFFC0
FFFFC0
FFFFC0
FFFFC0
01E000
01E000
01E000
01E000
01E000
01E000
01E000
01E000
01E000
01E000
01E000
01E000
01E000
01E000
01E000
01E000
01E000
01E000
01E000
01E000
ENDCHAR
STARTCHAR 067
ENCODING 67
SWIDTH 1440 0
DWIDTH 20 0
BBX 18 24 1 -20
BITMAP
F003C0
F003C0
F003C0
F003C0
F003C0
F003C0
F003C0
F003C0
F003C0
F003C0
F003C0
F003C0
F003C0
F003C0
F003C0
F003C0
F003C0
F003C0
F003C0
F003C0
FFFFC0
FFFFC0
FFFFC0
FFFFC0
ENDCHAR
STARTCHAR 068
ENCODING 68
SWIDTH 1440 0
DWIDTH 20 0
BBX 18 24 1 -20
BITMAP
FC0FC0
FE1FC0
FE1FC0
FF3FC0
F73BC0
F7FBC0
F3F3C0
F3F3C0
F1E3C0
F1E3C0
F0C3C0
F0C3C0
F003C0
F003C0
F003C0
F003C0
F003C0
F003C0
F003C0
F003C0
F003C0
F003C0
F003C0
F003C0
ENDCHAR
STARTCHAR 069
ENCODING 69
SWIDTH 1440 0
DWIDTH 20 0
BBX 18 24 1 -20
BITMAP
FC0FC0
FE1FC0
FE1FC0
FF3FC0
F73BC0
F7FBC0
F3F3C0
F3F3C0
F1E3C0
F1E3C0
F0C3C0
F0C3C0
F003C0
F003C0
F003C0
F003C0
F003C0
F003C0
F003C0
F003C0
F003C0
F003C0
F003C0
F003C0
ENDCHAR
STARTCHAR 070
ENCODING 70
SWIDTH 1440 0
DWIDTH 20 0
BBX 4 24 8 -20
BITMAP
F0
F0
F0
F0
F0
F0
F0
F0
F0
F0
F0
F0
F0
F0
F0
F0
F0
F0
F0
F0
F0
F0
F0
F0
ENDCHAR
STARTCHAR 071
ENCODING 71
SWIDTH 1440 0
DWIDTH 20 0
BBX 0 0 0 0
BITMAP
ENDCHAR
STARTCHAR 072
ENCODING 72
SWIDTH 1440 0
DWIDTH 20 0
BBX 0 0 0 0
BITMAP
ENDCHAR
STARTCHAR 073
ENCODING 73
SWIDTH 1440 0
DWIDTH 20 0
BBX 19 29 1 -23
BITMAP
0007E0
001FE0
007FE0
01FE20
03F800
07E000
060000
1F8000
0F0000
0F00E0
0F00E0
0F00E0
3FFFE0
3FFFE0
3FFFE0
7FFFE0
FFFFE0
7FFFE0
3FFFE0
3FFFE0
3FFFE0
3FFFE0
1FFFE0
1E0000
3CC000
79E000
FB3000
033000
01E000
ENDCHAR
STARTCHAR 074
ENCODING 74
SWIDTH 1440 0
DWIDTH 20 0
BBX 20 32 0 -23
BITMAP
F3FC70
F1F870
F1F860
E1F800
C7F000
03F000
000000
000000
000000
000000
000000
000000
C07800
C07800
C07800
FFFFF0
FFFFF0
FFFFF0
FFFFF0
FFFFF0
FFFFF0
FFFFF0
FFFFF0
FFFFF0
FFFFF0
FFFFF0
000000
181800
3C3C00
666600
666600
3C3C00
ENDCHAR
STARTCHAR 075
ENCODING 75
SWIDTH 1440 0
DWIDTH 20 0
BBX 20 32 0 -23
BITMAP
FC3C00
FEFE30
3F3E70
3F8F30
000610
FFE000
FFE000
FFE000
F06000
F06000
F06000
F06000
F06000
F06000
FFE000
FFE000
FFE000
FFE030
FFE070
FFE0F0
FFE3F0
FFE3F0
FFE3F0
FFFFF0
FFFFF0
FFFFF0
000000
300010
780030
CC0060
CC0060
780030
ENDCHAR
STARTCHAR 076
ENCODING 76
SWIDTH 1440 0
DWIDTH 20 0
BBX 19 32 0 -23
BITMAP
3E0F80
FE1F80
FF1FC0
FF0EE0
3E0C00
001F00
000F00
000000
000000
000000
000000
000000
000000
000000
07F000
1FF800
7FFC00
FFFF00
FFFF00
FFFF00
FFFF00
FFFF00
FFFF00
FFFFE0
FFFFE0
FFFFE0
000000
803000
C07800
60CC00
60CC00
C07800
ENDCHAR
STARTCHAR 077
ENCODING 77
SWIDTH 1440 0
DWIDTH 20 0
BBX 0 0 0 0
BITMAP
ENDCHAR
STARTCHAR 078
ENCODING 78
SWIDTH 1440 0
DWIDTH 20 0
BBX 19 29 1 -23
BITMAP
0007E0
001FE0
007FE0
01FE20
03F800
07E000
060000
1F8000
0F0000
0F00E0
0F00E0
0F00E0
3FFFE0
3FFFE0
3FFFE0
7FFFE0
FFFFE0
7FFFE0
3FFFE0
3FFFE0
3FFFE0
3FFFE0
1FFFE0
1E0000
3CC000
79E000
FB3000
033000
01E000
ENDCHAR
STARTCHAR 079
ENCODING 79
SWIDTH 1440 0
DWIDTH 20 0
BBX 20 32 0 -23
BITMAP
03FC70
01F8F0
01F9F0
01F870
07F0F0
03F000
000000
000000
000000
000000
000000
000000
C0F000
C0F000
C0F000
FFFFF0
FFFFF0
FFFFF0
FFFFF0
FFFFF0
FFFFF0
FFFFF0
FFFFF0
FFFFF0
FFFFF0
FFFFF0
000000
181800
3C3C00
666600
666600
3C3C00
ENDCHAR
STARTCHAR 080
ENCODING 80
SWIDTH 1440 0
DWIDTH 20 0
BBX 20 32 0 -23
BITMAP
FC3F00
F00FC0
C00FE0
C007F0
800000
FFE000
FFE000
FFE000
F06000
F06000
F06000
F06000
F06000
F06000
FFE000
FFE000
FFE000
FFE030
FFE070
FFE0F0
FFE3F0
FFE3F0
FFE3F0
FFFFF0
FFFFF0
FFFFF0
000000
300010
780030
CC0060
CC0060
780030
ENDCHAR
STARTCHAR 081
ENCODING 81
SWIDTH 1440 0
DWIDTH 20 0
BBX 20 31 0 -23
BITMAP
F80000
FC0FC0
FE0FE0
3F03F0
001C70
001FE0
000000
000000
000000
000000
000000
005000
000400
07F100
1FF800
7FFC00
FFFF00
FFFF00
FFFF00
FFFF00
FFFF00
FFFF00
FFFFE0
FFFFE0
FFFFE0
000000
803000
C07800
60CC00
60CC00
C07800
ENDCHAR
STARTCHAR 082
ENCODING 82
SWIDTH 1440 0
DWIDTH 20 0
BBX 16 26 1 -19
BITMAP
0C00
1E02
0F1F
001E
001C
0000
0000
0000
0000
0000
0000
0000
0000
0000
0000
C000
8000
0800
1800
0000
0200
0400
0000
0000
0300
0100
ENDCHAR
STARTCHAR 083
ENCODING 83
SWIDTH 1440 0
DWIDTH 20 0
BBX 19 31 1 -23
BITMAP
000020
000060
0003E0
001FE0
007F80
01FE00
03F800
07E000
060000
1F8000
0F0000
0F00E0
0F00E0
0F00E0
3FFFE0
3FFFE0
3FFFE0
7FFFE0
FFFFE0
7FFFE0
3FFFE0
3FFFE0
3FFFE0
3FFFE0
1FFFE0
1E0000
3CC000
79E000
FB3000
033000
01E000
ENDCHAR
STARTCHAR 084
ENCODING 84
SWIDTH 1440 0
DWIDTH 20 0
BBX 20 32 0 -23
BITMAP
03FC00
01FE00
01FF80
01FB90
00F030
0003F0
0000F0
000000
000000
000000
000000
000000
C07800
C07800
C07800
FFFFF0
FFFFF0
FFFFF0
FFFFF0
FFFFF0
FFFFF0
FFFFF0
FFFFF0
FFFFF0
FFFFF0
FFFFF0
000000
181800
3C3C00
666600
666600
3C3C00
ENDCHAR
STARTCHAR 085
ENCODING 85
SWIDTH 1440 0
DWIDTH 20 0
BBX 20 32 0 -23
BITMAP
FC3F00
F00FC0
C00FE0
C007F0
800000
FFE000
FFE000
FFE000
F06000
F06000
F06000
F06000
F06000
F06000
FFE000
FFE000
FFE000
FFE030
FFE070
FFE0F0
FFE3F0
FFE3F0
FFE3F0
FFFFF0
FFFFF0
FFFFF0
000000
300010
780030
CC0060
CC0060
780030
ENDCHAR
STARTCHAR 086
ENCODING 86
SWIDTH 1440 0
DWIDTH 20 0
BBX 20 32 0 -23
BITMAP
000070
3803E0
7C0FE0
3E0FE0
7F03C0
1C0040
007000
01F000
00E000
000000
000000
000000
000000
000000
07F000
1FF800
7FFC00
FFFF00
FFFF00
FFFF00
FFFF00
FFFF00
FFFF00
FFFFE0
FFFFE0
FFFFE0
000000
803000
C07800
60CC00
60CC00
C07800
ENDCHAR
STARTCHAR 087
ENCODING 87
SWIDTH 1440 0
DWIDTH 20 0
BBX 20 29 0 -22
BITMAP
7F8000
FFCF80
7FCFB0
3F5FE0
1C1FC0
000000
000000
000000
000000
000000
000000
000000
000000
000000
000000
000000
000000
000000
000000
000000
000000
000000
040000
030000
004000
000000
008800
000000
001800
ENDCHAR
STARTCHAR 088
ENCODING 88
SWIDTH 1440 0
DWIDTH 20 0
BBX 19 30 1 -23
BITMAP
0003E0
0007E0
003F80
007E00
01E000
03C000
07C000
060000
1F8000
0F0000
0F00E0
0F00E0
0F00E0
3FFFE0
3FFFE0
3FFFE0
7FFFE0
FFFFE0
7FFFE0
3FFFE0
3FFFE0
3FFFE0
3FFFE0
1FFFE0
1E0000
3CC000
79E000
FB3000
033000
01E000
ENDCHAR
STARTCHAR 089
ENCODING 89
SWIDTH 1440 0
DWIDTH 20 0
BBX 20 31 0 -23
BITMAP
01FC70
3BFEF0
7B7DF0
49F000
F80000
E00000
000000
000000
000000
000000
000000
C07800
C07800
C07800
FFFFF0
FFFFF0
FFFFF0
FFFFF0
FFFFF0
FFFFF0
FFFFF0
FFFFF0
FFFFF0
FFFFF0
FFFFF0
000000
181800
3C3C00
666600
666600
3C3C00
ENDCHAR
STARTCHAR 090
ENCODING 90
SWIDTH 1440 0
DWIDTH 20 0
BBX 20 32 0 -23
BITMAP
FC3F00
F00FC0
800F80
0007C0
000000
FFE000
FFE000
FFE000
F06000
F06000
F06000
F06000
F06000
F06000
FFE000
FFE000
FFE000
FFE030
FFE070
FFE0F0
FFE3F0
FFE3F0
FFE3F0
FFFFF0
FFFFF0
FFFFF0
000000
300010
780030
CC0060
CC0060
780030
ENDCHAR
STARTCHAR 091
ENCODING 91
SWIDTH 1440 0
DWIDTH 20 0
BBX 20 32 0 -23
BITMAP
030010
0F0230
3FCFB0
3FCFB0
079BB0
000E00
000E00
000000
000000
000000
000000
000000
000000
000000
07F000
1FF800
7FFC00
FFFF00
FFFF00
FFFF00
FFFF00
FFFF00
FFFF00
FFFFE0
FFFFE0
FFFFE0
000000
803000
C07800
60CC00
60CC00
C07800
ENDCHAR
STARTCHAR 092
ENCODING 92
SWIDTH 1440 0
DWIDTH 20 0
BBX 20 32 0 -23
BITMAP
000080
F00060
FF01F0
E1F030
E1E000
F3C000
F00000
200000
000000
000000
000000
000000
000000
000000
000000
000000
000000
000000
000000
000000
000000
000000
000000
000000
000800
002000
000200
000100
003200
002000
000580
000480
ENDCHAR
STARTCHAR 093
ENCODING 93
SWIDTH 1440 0
DWIDTH 20 0
BBX 19 30 1 -23
BITMAP
000060
000FE0
003FE0
007E00
01E000
03C000
07C000
060000
1F8000
0F0000
0F00E0
0F00E0
0F00E0
3FFFE0
3FFFE0
3FFFE0
7FFFE0
FFFFE0
7FFFE0
3FFFE0
3FFFE0
3FFFE0
3FFFE0
1FFFE0
1E0000
3CC000
79E000
FB3000
033000
01E000
ENDCHAR
STARTCHAR 094
ENCODING 94
SWIDTH 1440 0
DWIDTH 20 0
BBX 20 31 0 -23
BITMAP
018000
3BF0F0
FBF1F0
C9E0F0
F80030
000000
000000
000000
000000
000000
000000
C07800
C07800
C07800
FFFFF0
FFFFF0
FFFFF0
FFFFF0
FFFFF0
FFFFF0
FFFFF0
FFFFF0
FFFFF0
FFFFF0
FFFFF0
000000
181800
3C3C00
666600
666600
3C3C00
ENDCHAR
STARTCHAR 095
ENCODING 95
SWIDTH 1440 0
DWIDTH 20 0
BBX 20 32 0 -23
BITMAP
0F0000
0F8FC0
E38FE0
C187C0
E00000
FFE000
FFE000
FFE000
F06000
F06000
F06000
F06000
F06000
F06000
FFE000
FFE000
FFE000
FFE030
FFE070
FFE0F0
FFE3F0
FFE3F0
FFE3F0
FFFFF0
FFFFF0
FFFFF0
000000
300010
780030
CC0060
CC0060
780030
ENDCHAR
STARTCHAR 096
ENCODING 96
SWIDTH 1440 0
DWIDTH 20 0
BBX 20 32 0 -23
BITMAP
001E00
000400
0F9E10
3F9F30
171630
020800
000000
000000
000000
000000
000000
000000
000000
000000
07F000
1FF800
7FFC00
FFFF00
FFFF00
FFFF00
FFFF00
FFFF00
FFFF00
FFFFE0
FFFFE0
FFFFE0
000000
803000
C07800
60CC00
60CC00
C07800
ENDCHAR
STARTCHAR 097
ENCODING 97
SWIDTH 1440 0
DWIDTH 20 0
BBX 17 32 3 -23
BITMAP
000400
000F00
3C1900
EC3B00
E63F00
000000
000000
000000
000000
000000
000000
000000
000000
000000
000000
000000
000000
000000
000000
000000
000000
000000
000000
000000
000000
000000
000000
001A00
000100
000400
000100
006480
ENDCHAR
STARTCHAR 098
ENCODING 98
SWIDTH 1440 0
DWIDTH 20 0
BBX 19 30 1 -23
BITMAP
000180
0017C0
007380
00F000
07E000
07C000
060000
060000
1F8000
0F0000
0F00E0
0F00E0
0F00E0
3FFFE0
3FFFE0
3FFFE0
7FFFE0
FFFFE0
7FFFE0
3FFFE0
3FFFE0
3FFFE0
3FFFE0
1FFFE0
1E0000
3CC000
79E000
FB3000
033000
01E000
ENDCHAR
STARTCHAR 099
ENCODING 99
SWIDTH 1440 0
DWIDTH 20 0
BBX 20 32 0 -23
BITMAP
00E080
21F3C0
6F27C0
7F2FC0
49E000
780000
000000
000000
000000
000000
000000
000000
C07800
C07800
C07800
FFFFF0
FFFFF0
FFFFF0
FFFFF0
FFFFF0
FFFFF0
FFFFF0
FFFFF0
FFFFF0
FFFFF0
FFFFF0
000000
181800
3C3C00
666600
666600
3C3C00
ENDCHAR
STARTCHAR 100
ENCODING 100
SWIDTH 1440 0
DWIDTH 20 0
BBX 20 31 0 -23
BITMAP
EF82C0
E3C7E0
61F3C0
003800
FFE000
FFE000
FFE000
F06000
F06000
F06000
F06000
F06000
F06000
FFE000
FFE000
FFE000
FFE030
FFE070
FFE0F0
FFE3F0
FFE3F0
FFE3F0
FFFFF0
FFFFF0
FFFFF0
000000
300010
780030
CC0060
CC0060
780030
ENDCHAR
STARTCHAR 101
ENCODING 101
SWIDTH 1440 0
DWIDTH 20 0
BBX 20 32 0 -23
BITMAP
300000
7F1070
FF3E70
001F30
000870
000000
000000
000000
000000
000000
000000
000000
000000
000000
07F000
1FF800
7FFC00
FFFF00
FFFF00
FFFF00
FFFF00
FFFF00
FFFF00
FFFFE0
FFFFE0
FFFFE0
000000
803000
C07800
60CC00
60CC00
C07800
ENDCHAR
STARTCHAR 102
ENCODING 102
SWIDTH 1440 0
DWIDTH 20 0
BBX 20 9 0 0
BITMAP
004000
00E000
F8F070
F1F0F0
202070
000000
003C00
00F880
000C00
ENDCHAR
STARTCHAR 103
ENCODING 103
SWIDTH 1440 0
DWIDTH 20 0
BBX 20 8 0 -17
BITMAP
D80E00
A80200
A80200
8AE4D0
8AA450
8AE8D0
8AC890
8AAED0
ENDCHAR
STARTCHAR 104
ENCODING 104
SWIDTH 1440 0
DWIDTH 20 0
BBX 0 0 0 0
BITMAP
ENDCHAR
STARTCHAR 105
ENCODING 105
SWIDTH 1440 0
DWIDTH 20 0
BBX 0 0 0 0
BITMAP
ENDCHAR
STARTCHAR 106
ENCODING 106
SWIDTH 1440 0
DWIDTH 20 0
BBX 0 0 0 0
BITMAP
ENDCHAR
STARTCHAR 107
ENCODING 107
SWIDTH 1440 0
DWIDTH 20 0
BBX 0 0 0 0
BITMAP
ENDCHAR
STARTCHAR 108
ENCODING 108
SWIDTH 1440 0
DWIDTH 20 0
BBX 0 0 0 0
BITMAP
ENDCHAR
STARTCHAR 109
ENCODING 109
SWIDTH 1440 0
DWIDTH 20 0
BBX 0 0 0 0
BITMAP
ENDCHAR
STARTCHAR 110
ENCODING 110
SWIDTH 1440 0
DWIDTH 20 0
BBX 0 0 0 0
BITMAP
ENDCHAR
STARTCHAR 111
ENCODING 111
SWIDTH 1440 0
DWIDTH 20 0
BBX 0 0 0 0
BITMAP
ENDCHAR
STARTCHAR 112
ENCODING 112
SWIDTH 1440 0
DWIDTH 20 0
BBX 0 0 0 0
BITMAP
ENDCHAR
STARTCHAR 113
ENCODING 113
SWIDTH 1440 0
DWIDTH 20 0
BBX 0 0 0 0
BITMAP
ENDCHAR
STARTCHAR 114
ENCODING 114
SWIDTH 1440 0
DWIDTH 20 0
BBX 0 0 0 0
BITMAP
ENDCHAR
STARTCHAR 115
ENCODING 115
SWIDTH 1440 0
DWIDTH 20 0
BBX 0 0 0 0
BITMAP
ENDCHAR
STARTCHAR 116
ENCODING 116
SWIDTH 1440 0
DWIDTH 20 0
BBX 0 0 0 0
BITMAP
ENDCHAR
STARTCHAR 117
ENCODING 117
SWIDTH 1440 0
DWIDTH 20 0
BBX 0 0 0 0
BITMAP
ENDCHAR
STARTCHAR 118
ENCODING 118
SWIDTH 1440 0
DWIDTH 20 0
BBX 0 0 0 0
BITMAP
ENDCHAR
STARTCHAR 119
ENCODING 119
SWIDTH 1440 0
DWIDTH 20 0
BBX 0 0 0 0
BITMAP
ENDCHAR
STARTCHAR 120
ENCODING 120
SWIDTH 1440 0
DWIDTH 20 0
BBX 0 0 0 0
BITMAP
ENDCHAR
STARTCHAR 121
ENCODING 121
SWIDTH 1440 0
DWIDTH 20 0
BBX 0 0 0 0
BITMAP
ENDCHAR
STARTCHAR 122
ENCODING 122
SWIDTH 1440 0
DWIDTH 20 0
BBX 0 0 0 0
BITMAP
ENDCHAR
STARTCHAR 123
ENCODING 123
SWIDTH 1440 0
DWIDTH 20 0
BBX 0 0 0 0
BITMAP
ENDCHAR
STARTCHAR 124
ENCODING 124
SWIDTH 1440 0
DWIDTH 20 0
BBX 0 0 0 0
BITMAP
ENDCHAR
STARTCHAR 125
ENCODING 125
SWIDTH 1440 0
DWIDTH 20 0
BBX 0 0 0 0
BITMAP
ENDCHAR
STARTCHAR 126
ENCODING 126
SWIDTH 1440 0
DWIDTH 20 0
BBX 0 0 0 0
BITMAP
ENDCHAR
STARTCHAR 127
ENCODING 127
SWIDTH 1440 0
DWIDTH 20 0
BBX 0 0 0 0
BITMAP
ENDCHAR
STARTCHAR 128
ENCODING 128
SWIDTH 1440 0
DWIDTH 20 0
BBX 0 0 0 0
BITMAP
ENDCHAR
STARTCHAR 129
ENCODING 129
SWIDTH 1440 0
DWIDTH 20 0
BBX 0 0 0 0
BITMAP
ENDCHAR
STARTCHAR 130
ENCODING 130
SWIDTH 1440 0
DWIDTH 20 0
BBX 0 0 0 0
BITMAP
ENDCHAR
STARTCHAR 131
ENCODING 131
SWIDTH 1440 0
DWIDTH 20 0
BBX 0 0 0 0
BITMAP
ENDCHAR
STARTCHAR 132
ENCODING 132
SWIDTH 1440 0
DWIDTH 20 0
BBX 0 0 0 0
BITMAP
ENDCHAR
STARTCHAR 133
ENCODING 133
SWIDTH 1440 0
DWIDTH 20 0
BBX 0 0 0 0
BITMAP
ENDCHAR
STARTCHAR 134
ENCODING 134
SWIDTH 1440 0
DWIDTH 20 0
BBX 0 0 0 0
BITMAP
ENDCHAR
STARTCHAR 135
ENCODING 135
SWIDTH 1440 0
DWIDTH 20 0
BBX 0 0 0 0
BITMAP
ENDCHAR
STARTCHAR 136
ENCODING 136
SWIDTH 1440 0
DWIDTH 20 0
BBX 0 0 0 0
BITMAP
ENDCHAR
STARTCHAR 137
ENCODING 137
SWIDTH 1440 0
DWIDTH 20 0
BBX 0 0 0 0
BITMAP
ENDCHAR
STARTCHAR 138
ENCODING 138
SWIDTH 1440 0
DWIDTH 20 0
BBX 0 0 0 0
BITMAP
ENDCHAR
STARTCHAR 139
ENCODING 139
SWIDTH 1440 0
DWIDTH 20 0
BBX 0 0 0 0
BITMAP
ENDCHAR
STARTCHAR 140
ENCODING 140
SWIDTH 1440 0
DWIDTH 20 0
BBX 0 0 0 0
BITMAP
ENDCHAR
STARTCHAR 141
ENCODING 141
SWIDTH 1440 0
DWIDTH 20 0
BBX 0 0 0 0
BITMAP
ENDCHAR
STARTCHAR 142
ENCODING 142
SWIDTH 1440 0
DWIDTH 20 0
BBX 0 0 0 0
BITMAP
ENDCHAR
STARTCHAR 143
ENCODING 143
SWIDTH 1440 0
DWIDTH 20 0
BBX 0 0 0 0
BITMAP
ENDCHAR
STARTCHAR 144
ENCODING 144
SWIDTH 1440 0
DWIDTH 20 0
BBX 0 0 0 0
BITMAP
ENDCHAR
STARTCHAR 145
ENCODING 145
SWIDTH 1440 0
DWIDTH 20 0
BBX 0 0 0 0
BITMAP
ENDCHAR
STARTCHAR 146
ENCODING 146
SWIDTH 1440 0
DWIDTH 20 0
BBX 0 0 0 0
BITMAP
ENDCHAR
STARTCHAR 147
ENCODING 147
SWIDTH 1440 0
DWIDTH 20 0
BBX 0 0 0 0
BITMAP
ENDCHAR
STARTCHAR 148
ENCODING 148
SWIDTH 1440 0
DWIDTH 20 0
BBX 0 0 0 0
BITMAP
ENDCHAR
STARTCHAR 149
ENCODING 149
SWIDTH 1440 0
DWIDTH 20 0
BBX 0 0 0 0
BITMAP
ENDCHAR
STARTCHAR 150
ENCODING 150
SWIDTH 1440 0
DWIDTH 20 0
BBX 0 0 0 0
BITMAP
ENDCHAR
STARTCHAR 151
ENCODING 151
SWIDTH 1440 0
DWIDTH 20 0
BBX 0 0 0 0
BITMAP
ENDCHAR
STARTCHAR 152
ENCODING 152
SWIDTH 1440 0
DWIDTH 20 0
BBX 0 0 0 0
BITMAP
ENDCHAR
STARTCHAR 153
ENCODING 153
SWIDTH 1440 0
DWIDTH 20 0
BBX 0 0 0 0
BITMAP
ENDCHAR
STARTCHAR 154
ENCODING 154
SWIDTH 1440 0
DWIDTH 20 0
BBX 0 0 0 0
BITMAP
ENDCHAR
STARTCHAR 155
ENCODING 155
SWIDTH 1440 0
DWIDTH 20 0
BBX 0 0 0 0
BITMAP
ENDCHAR
STARTCHAR 156
ENCODING 156
SWIDTH 1440 0
DWIDTH 20 0
BBX 0 0 0 0
BITMAP
ENDCHAR
STARTCHAR 157
ENCODING 157
SWIDTH 1440 0
DWIDTH 20 0
BBX 0 0 0 0
BITMAP
ENDCHAR
STARTCHAR 158
ENCODING 158
SWIDTH 1440 0
DWIDTH 20 0
BBX 0 0 0 0
BITMAP
ENDCHAR
STARTCHAR 159
ENCODING 159
SWIDTH 1440 0
DWIDTH 20 0
BBX 0 0 0 0
BITMAP
ENDCHAR
STARTCHAR 160
ENCODING 160
SWIDTH 1440 0
DWIDTH 20 0
BBX 0 0 0 0
BITMAP
ENDCHAR
STARTCHAR 161
ENCODING 161
SWIDTH 1440 0
DWIDTH 20 0
BBX 0 0 0 0
BITMAP
ENDCHAR
STARTCHAR 162
ENCODING 162
SWIDTH 1440 0
DWIDTH 20 0
BBX 0 0 0 0
BITMAP
ENDCHAR
STARTCHAR 163
ENCODING 163
SWIDTH 1440 0
DWIDTH 20 0
BBX 0 0 0 0
BITMAP
ENDCHAR
STARTCHAR 164
ENCODING 164
SWIDTH 1440 0
DWIDTH 20 0
BBX 0 0 0 0
BITMAP
ENDCHAR
STARTCHAR 165
ENCODING 165
SWIDTH 1440 0
DWIDTH 20 0
BBX 0 0 0 0
BITMAP
ENDCHAR
STARTCHAR 166
ENCODING 166
SWIDTH 1440 0
DWIDTH 20 0
BBX 0 0 0 0
BITMAP
ENDCHAR
STARTCHAR 167
ENCODING 167
SWIDTH 1440 0
DWIDTH 20 0
BBX 0 0 0 0
BITMAP
ENDCHAR
STARTCHAR 168
ENCODING 168
SWIDTH 1440 0
DWIDTH 20 0
BBX 0 0 0 0
BITMAP
ENDCHAR
STARTCHAR 169
ENCODING 169
SWIDTH 1440 0
DWIDTH 20 0
BBX 0 0 0 0
BITMAP
ENDCHAR
STARTCHAR 170
ENCODING 170
SWIDTH 1440 0
DWIDTH 20 0
BBX 0 0 0 0
BITMAP
ENDCHAR
STARTCHAR 171
ENCODING 171
SWIDTH 1440 0
DWIDTH 20 0
BBX 0 0 0 0
BITMAP
ENDCHAR
STARTCHAR 172
ENCODING 172
SWIDTH 1440 0
DWIDTH 20 0
BBX 0 0 0 0
BITMAP
ENDCHAR
STARTCHAR 173
ENCODING 173
SWIDTH 1440 0
DWIDTH 20 0
BBX 0 0 0 0
BITMAP
ENDCHAR
STARTCHAR 174
ENCODING 174
SWIDTH 1440 0
DWIDTH 20 0
BBX 0 0 0 0
BITMAP
ENDCHAR
STARTCHAR 175
ENCODING 175
SWIDTH 1440 0
DWIDTH 20 0
BBX 0 0 0 0
BITMAP
ENDCHAR
STARTCHAR 176
ENCODING 176
SWIDTH 1440 0
DWIDTH 20 0
BBX 0 0 0 0
BITMAP
ENDCHAR
STARTCHAR 177
ENCODING 177
SWIDTH 1440 0
DWIDTH 20 0
BBX 0 0 0 0
BITMAP
ENDCHAR
STARTCHAR 178
ENCODING 178
SWIDTH 1440 0
DWIDTH 20 0
BBX 0 0 0 0
BITMAP
ENDCHAR
STARTCHAR 179
ENCODING 179
SWIDTH 1440 0
DWIDTH 20 0
BBX 0 0 0 0
BITMAP
ENDCHAR
STARTCHAR 180
ENCODING 180
SWIDTH 1440 0
DWIDTH 20 0
BBX 0 0 0 0
BITMAP
ENDCHAR
STARTCHAR 181
ENCODING 181
SWIDTH 1440 0
DWIDTH 20 0
BBX 0 0 0 0
BITMAP
ENDCHAR
STARTCHAR 182
ENCODING 182
SWIDTH 1440 0
DWIDTH 20 0
BBX 0 0 0 0
BITMAP
ENDCHAR
STARTCHAR 183
ENCODING 183
SWIDTH 1440 0
DWIDTH 20 0
BBX 0 0 0 0
BITMAP
ENDCHAR
STARTCHAR 184
ENCODING 184
SWIDTH 1440 0
DWIDTH 20 0
BBX 0 0 0 0
BITMAP
ENDCHAR
STARTCHAR 185
ENCODING 185
SWIDTH 1440 0
DWIDTH 20 0
BBX 0 0 0 0
BITMAP
ENDCHAR
STARTCHAR 186
ENCODING 186
SWIDTH 1440 0
DWIDTH 20 0
BBX 0 0 0 0
BITMAP
ENDCHAR
STARTCHAR 187
ENCODING 187
SWIDTH 1440 0
DWIDTH 20 0
BBX 0 0 0 0
BITMAP
ENDCHAR
STARTCHAR 188
ENCODING 188
SWIDTH 1440 0
DWIDTH 20 0
BBX 0 0 0 0
BITMAP
ENDCHAR
STARTCHAR 189
ENCODING 189
SWIDTH 1440 0
DWIDTH 20 0
BBX 0 0 0 0
BITMAP
ENDCHAR
STARTCHAR 190
ENCODING 190
SWIDTH 1440 0
DWIDTH 20 0
BBX 0 0 0 0
BITMAP
ENDCHAR
STARTCHAR 191
ENCODING 191
SWIDTH 1440 0
DWIDTH 20 0
BBX 0 0 0 0
BITMAP
ENDCHAR
STARTCHAR 192
ENCODING 192
SWIDTH 1440 0
DWIDTH 20 0
BBX 0 0 0 0
BITMAP
ENDCHAR
STARTCHAR 193
ENCODING 193
SWIDTH 1440 0
DWIDTH 20 0
BBX 0 0 0 0
BITMAP
ENDCHAR
STARTCHAR 194
ENCODING 194
SWIDTH 1440 0
DWIDTH 20 0
BBX 0 0 0 0
BITMAP
ENDCHAR
STARTCHAR 195
ENCODING 195
SWIDTH 1440 0
DWIDTH 20 0
BBX 0 0 0 0
BITMAP
ENDCHAR
STARTCHAR 196
ENCODING 196
SWIDTH 1440 0
DWIDTH 20 0
BBX 0 0 0 0
BITMAP
ENDCHAR
STARTCHAR 197
ENCODING 197
SWIDTH 1440 0
DWIDTH 20 0
BBX 0 0 0 0
BITMAP
ENDCHAR
STARTCHAR 198
ENCODING 198
SWIDTH 1440 0
DWIDTH 20 0
BBX 0 0 0 0
BITMAP
ENDCHAR
STARTCHAR 199
ENCODING 199
SWIDTH 1440 0
DWIDTH 20 0
BBX 0 0 0 0
BITMAP
ENDCHAR
STARTCHAR 200
ENCODING 200
SWIDTH 1440 0
DWIDTH 20 0
BBX 0 0 0 0
BITMAP
ENDCHAR
STARTCHAR 201
ENCODING 201
SWIDTH 1440 0
DWIDTH 20 0
BBX 0 0 0 0
BITMAP
ENDCHAR
STARTCHAR 202
ENCODING 202
SWIDTH 1440 0
DWIDTH 20 0
BBX 0 0 0 0
BITMAP
ENDCHAR
STARTCHAR 203
ENCODING 203
SWIDTH 1440 0
DWIDTH 20 0
BBX 0 0 0 0
BITMAP
ENDCHAR
STARTCHAR 204
ENCODING 204
SWIDTH 1440 0
DWIDTH 20 0
BBX 0 0 0 0
BITMAP
ENDCHAR
STARTCHAR 205
ENCODING 205
SWIDTH 1440 0
DWIDTH 20 0
BBX 0 0 0 0
BITMAP
ENDCHAR
STARTCHAR 206
ENCODING 206
SWIDTH 1440 0
DWIDTH 20 0
BBX 0 0 0 0
BITMAP
ENDCHAR
STARTCHAR 207
ENCODING 207
SWIDTH 1440 0
DWIDTH 20 0
BBX 0 0 0 0
BITMAP
ENDCHAR
STARTCHAR 208
ENCODING 208
SWIDTH 1440 0
DWIDTH 20 0
BBX 0 0 0 0
BITMAP
ENDCHAR
STARTCHAR 209
ENCODING 209
SWIDTH 1440 0
DWIDTH 20 0
BBX 0 0 0 0
BITMAP
ENDCHAR
STARTCHAR 210
ENCODING 210
SWIDTH 1440 0
DWIDTH 20 0
BBX 0 0 0 0
BITMAP
ENDCHAR
STARTCHAR 211
ENCODING 211
SWIDTH 1440 0
DWIDTH 20 0
BBX 0 0 0 0
BITMAP
ENDCHAR
STARTCHAR 212
ENCODING 212
SWIDTH 1440 0
DWIDTH 20 0
BBX 0 0 0 0
BITMAP
ENDCHAR
STARTCHAR 213
ENCODING 213
SWIDTH 1440 0
DWIDTH 20 0
BBX 0 0 0 0
BITMAP
ENDCHAR
STARTCHAR 214
ENCODING 214
SWIDTH 1440 0
DWIDTH 20 0
BBX 0 0 0 0
BITMAP
ENDCHAR
STARTCHAR 215
ENCODING 215
SWIDTH 1440 0
DWIDTH 20 0
BBX 0 0 0 0
BITMAP
ENDCHAR
STARTCHAR 216
ENCODING 216
SWIDTH 1440 0
DWIDTH 20 0
BBX 0 0 0 0
BITMAP
ENDCHAR
STARTCHAR 217
ENCODING 217
SWIDTH 1440 0
DWIDTH 20 0
BBX 0 0 0 0
BITMAP
ENDCHAR
STARTCHAR 218
ENCODING 218
SWIDTH 1440 0
DWIDTH 20 0
BBX 0 0 0 0
BITMAP
ENDCHAR
STARTCHAR 219
ENCODING 219
SWIDTH 1440 0
DWIDTH 20 0
BBX 0 0 0 0
BITMAP
ENDCHAR
STARTCHAR 220
ENCODING 220
SWIDTH 1440 0
DWIDTH 20 0
BBX 0 0 0 0
BITMAP
ENDCHAR
STARTCHAR 221
ENCODING 221
SWIDTH 1440 0
DWIDTH 20 0
BBX 0 0 0 0
BITMAP
ENDCHAR
STARTCHAR 222
ENCODING 222
SWIDTH 1440 0
DWIDTH 20 0
BBX 0 0 0 0
BITMAP
ENDCHAR
STARTCHAR 223
ENCODING 223
SWIDTH 1440 0
DWIDTH 20 0
BBX 0 0 0 0
BITMAP
ENDCHAR
STARTCHAR 224
ENCODING 224
SWIDTH 1440 0
DWIDTH 20 0
BBX 0 0 0 0
BITMAP
ENDCHAR
STARTCHAR 225
ENCODING 225
SWIDTH 1440 0
DWIDTH 20 0
BBX 0 0 0 0
BITMAP
ENDCHAR
STARTCHAR 226
ENCODING 226
SWIDTH 1440 0
DWIDTH 20 0
BBX 0 0 0 0
BITMAP
ENDCHAR
STARTCHAR 227
ENCODING 227
SWIDTH 1440 0
DWIDTH 20 0
BBX 0 0 0 0
BITMAP
ENDCHAR
STARTCHAR 228
ENCODING 228
SWIDTH 1440 0
DWIDTH 20 0
BBX 0 0 0 0
BITMAP
ENDCHAR
STARTCHAR 229
ENCODING 229
SWIDTH 1440 0
DWIDTH 20 0
BBX 0 0 0 0
BITMAP
ENDCHAR
STARTCHAR 230
ENCODING 230
SWIDTH 1440 0
DWIDTH 20 0
BBX 0 0 0 0
BITMAP
ENDCHAR
STARTCHAR 231
ENCODING 231
SWIDTH 1440 0
DWIDTH 20 0
BBX 0 0 0 0
BITMAP
ENDCHAR
STARTCHAR 232
ENCODING 232
SWIDTH 1440 0
DWIDTH 20 0
BBX 0 0 0 0
BITMAP
ENDCHAR
STARTCHAR 233
ENCODING 233
SWIDTH 1440 0
DWIDTH 20 0
BBX 0 0 0 0
BITMAP
ENDCHAR
STARTCHAR 234
ENCODING 234
SWIDTH 1440 0
DWIDTH 20 0
BBX 0 0 0 0
BITMAP
ENDCHAR
STARTCHAR 235
ENCODING 235
SWIDTH 1440 0
DWIDTH 20 0
BBX 0 0 0 0
BITMAP
ENDCHAR
STARTCHAR 236
ENCODING 236
SWIDTH 1440 0
DWIDTH 20 0
BBX 0 0 0 0
BITMAP
ENDCHAR
STARTCHAR 237
ENCODING 237
SWIDTH 1440 0
DWIDTH 20 0
BBX 0 0 0 0
BITMAP
ENDCHAR
STARTCHAR 238
ENCODING 238
SWIDTH 1440 0
DWIDTH 20 0
BBX 0 0 0 0
BITMAP
ENDCHAR
STARTCHAR 239
ENCODING 239
SWIDTH 1440 0
DWIDTH 20 0
BBX 0 0 0 0
BITMAP
ENDCHAR
STARTCHAR 240
ENCODING 240
SWIDTH 1440 0
DWIDTH 20 0
BBX 0 0 0 0
BITMAP
ENDCHAR
STARTCHAR 241
ENCODING 241
SWIDTH 1440 0
DWIDTH 20 0
BBX 0 0 0 0
BITMAP
ENDCHAR
STARTCHAR 242
ENCODING 242
SWIDTH 1440 0
DWIDTH 20 0
BBX 0 0 0 0
BITMAP
ENDCHAR
STARTCHAR 243
ENCODING 243
SWIDTH 1440 0
DWIDTH 20 0
BBX 0 0 0 0
BITMAP
ENDCHAR
STARTCHAR 244
ENCODING 244
SWIDTH 1440 0
DWIDTH 20 0
BBX 0 0 0 0
BITMAP
ENDCHAR
STARTCHAR 245
ENCODING 245
SWIDTH 1440 0
DWIDTH 20 0
BBX 0 0 0 0
BITMAP
ENDCHAR
STARTCHAR 246
ENCODING 246
SWIDTH 1440 0
DWIDTH 20 0
BBX 0 0 0 0
BITMAP
ENDCHAR
STARTCHAR 247
ENCODING 247
SWIDTH 1440 0
DWIDTH 20 0
BBX 0 0 0 0
BITMAP
ENDCHAR
STARTCHAR 248
ENCODING 248
SWIDTH 1440 0
DWIDTH 20 0
BBX 0 0 0 0
BITMAP
ENDCHAR
STARTCHAR 249
ENCODING 249
SWIDTH 1440 0
DWIDTH 20 0
BBX 0 0 0 0
BITMAP
ENDCHAR
STARTCHAR 250
ENCODING 250
SWIDTH 1440 0
DWIDTH 20 0
BBX 0 0 0 0
BITMAP
ENDCHAR
STARTCHAR 251
ENCODING 251
SWIDTH 1440 0
DWIDTH 20 0
BBX 0 0 0 0
BITMAP
ENDCHAR
STARTCHAR 252
ENCODING 252
SWIDTH 1440 0
DWIDTH 20 0
BBX 0 0 0 0
BITMAP
ENDCHAR
STARTCHAR 253
ENCODING 253
SWIDTH 1440 0
DWIDTH 20 0
BBX 0 0 0 0
BITMAP
ENDCHAR
STARTCHAR 254
ENCODING 254
SWIDTH 1440 0
DWIDTH 20 0
BBX 0 0 0 0
BITMAP
ENDCHAR
STARTCHAR 255
ENCODING 255
SWIDTH 1440 0
DWIDTH 20 0
BBX 0 0 0 0
BITMAP
ENDCHAR
ENDFONT
